<?xml version="1.0" encoding="utf-8"?>
<!-- Generator: Adobe Illustrator 19.0.0, SVG Export Plug-In . SVG Version: 6.00 Build 0)  -->
<!DOCTYPE svg PUBLIC "-//W3C//DTD SVG 1.1//EN" "http://www.w3.org/Graphics/SVG/1.1/DTD/svg11.dtd">
<svg version="1.1" id="Layer_1" xmlns="http://www.w3.org/2000/svg" xmlns:xlink="http://www.w3.org/1999/xlink" x="0px" y="0px"
	 viewBox="0 0 351.1 99.5" enable-background="new 0 0 351.1 99.5" xml:space="preserve">
<path fill="#003D7B" d="M237.7,88.2c0,6.3-5.1,11.4-11.4,11.4h-215C5.1,99.5,0,94.4,0,88.2V11.4C0,5.1,5.1,0,11.4,0h215
	c6.3,0,11.4,5.1,11.4,11.4V88.2z"/>
<path fill="#0071BB" d="M351.1,88.2c0,6.3-5.1,11.4-11.4,11.4h-77.6c-6.3,0-11.4-5.1-11.4-11.4V11.4c0-6.3,5.1-11.4,11.4-11.4h77.6
	c6.3,0,11.4,5.1,11.4,11.4V88.2z"/>
<g>
	<g>
		<path fill="#FFFFFF" d="M81.9,82.8c0,0.8-0.4,0.9-1,0.9h-4.4c-0.7,0-1-0.2-1-0.9V63.7c0-0.6,0.1-0.8,1-0.8h4.5c0.7,0,1,0.1,1,0.8
			V82.8z"/>
		<path fill="#FFFFFF" d="M81.9,57.9c0,0.8-0.4,0.9-1,0.9h-4.4c-0.7,0-1-0.2-1-0.9V54c0-0.6,0.1-0.8,1-0.8h4.5c0.7,0,1,0.1,1,0.8
			V57.9z"/>
	</g>
	<path fill="#FFFFFF" d="M106.4,82.8c0,0.7-0.3,0.8-1,0.8h-3.8c-0.9,0-1-0.3-1-0.9V69.2c0-1.6,0-4.1-4-4.1c-3.8,0-3.8,2.4-3.8,3.4
		v14.3c0,0.8-0.2,1-1.1,1H88c-0.8,0-1-0.2-1-0.8V66.9c0-1.6,0.1-2.5,2.2-3.4c2.5-1,5.2-1.2,7.9-1.2c4.7,0,6.3,1,7.1,1.6
		c2.1,1.5,2.2,3.4,2.2,4.8V82.8z"/>
	<path fill="#FFFFFF" d="M117.8,65.1v12.4c0,1.2,0,3.7,3.2,3.9c1.2,0,2.1,0,2.1,1c0,1.1-2.6,1.8-4.5,1.8c-2.5,0-4.2-0.8-5.1-1.8
		c-1.3-1.4-1.4-2.8-1.4-4.1V65.1h-2.2c-0.8,0-0.8-0.2-0.8-1.6c0-0.5,0.2-0.6,0.8-0.6h2.3v-2.3c0-0.8,0.1-1,0.8-1.4l3.4-1.8
		c0.5-0.3,0.7-0.3,0.8-0.3c0.6,0,0.7,0.6,0.7,1.1v4.7h3.6c0.5,0,0.9,0,0.9,0.6c0,1.5,0,1.6-0.8,1.6H117.8z"/>
	<path fill="#FFFFFF" d="M129.1,73.1c0.8,5.5,4.2,6.6,6.5,6.6c2.5,0,4.4-1.3,5.6-2.7c0.8-0.9,1-1.2,1.6-1.2c0.6,0,1.2,0.4,1.2,1.2
		c0,1.1-1.9,7-9.3,7c-6.2,0-10.5-3.9-10.5-11c0-8,5.5-10.9,10.5-10.9c7.3,0,9.1,5.6,9.1,7.6c0,1.4-1.1,1.5-1.6,1.6L129.1,73.1z
		 M137.9,69.4c-0.2-2.6-2-4.1-4.1-4.1c-3.2,0-4.7,2.5-4.9,5.3L137.9,69.4z"/>
	<path fill="#FFFFFF" d="M153.5,82.8c0,0.6-0.2,0.8-1,0.8h-3.8c-0.8,0-1-0.2-1-0.8V66c0-1.2,0.2-1.8,1.4-2.3c1.6-0.8,5-1.4,8.6-1.4
		c2.9,0,5.6,0.6,5.6,3c0,1.2-1,2.2-2.5,2.2c-1.3,0-1.7-0.6-2.4-1.5c-0.4-0.5-0.9-1.1-2.3-1.1c-2.4,0-2.5,1.4-2.5,2.4V82.8z"/>
	<path fill="#FFFFFF" d="M184.7,82.8c0,0.7-0.3,0.8-1,0.8h-3.8c-0.9,0-1-0.3-1-0.9V69.2c0-1.6,0-4.1-4-4.1c-3.8,0-3.8,2.4-3.8,3.4
		v14.3c0,0.8-0.2,1-1.1,1h-3.7c-0.8,0-1-0.2-1-0.8V66.9c0-1.6,0.1-2.5,2.2-3.4c2.5-1,5.2-1.2,7.9-1.2c4.7,0,6.3,1,7.1,1.6
		c2.1,1.5,2.2,3.4,2.2,4.8V82.8z"/>
	<path fill="#FFFFFF" d="M193.6,73.1c0.8,5.5,4.2,6.6,6.5,6.6c2.5,0,4.4-1.3,5.6-2.7c0.8-0.9,1-1.2,1.6-1.2c0.6,0,1.2,0.4,1.2,1.2
		c0,1.1-1.9,7-9.3,7c-6.2,0-10.5-3.9-10.5-11c0-8,5.5-10.9,10.5-10.9c7.3,0,9.1,5.6,9.1,7.6c0,1.4-1.1,1.5-1.6,1.6L193.6,73.1z
		 M202.4,69.4c-0.2-2.6-2-4.1-4.1-4.1c-3.2,0-4.7,2.5-4.9,5.3L202.4,69.4z"/>
	<path fill="#FFFFFF" d="M218.5,65.1v12.4c0,1.2,0,3.7,3.2,3.9c1.2,0,2.1,0,2.1,1c0,1.1-2.6,1.8-4.5,1.8c-2.5,0-4.2-0.8-5.1-1.8
		c-1.3-1.4-1.4-2.8-1.4-4.1V65.1h-2.3c-0.8,0-0.8-0.2-0.8-1.6c0-0.5,0.2-0.6,0.8-0.6h2.3v-2.3c0-0.8,0.1-1,0.8-1.4l3.4-1.8
		c0.5-0.3,0.7-0.3,0.8-0.3c0.6,0,0.7,0.6,0.7,1.1v4.7h3.6c0.5,0,0.9,0,0.9,0.6c0,1.5,0,1.6-0.8,1.6H218.5z"/>
</g>
<g>
	<g>
		<path fill="#FFFFFF" d="M272.1,82.8c0,0.8-0.4,0.9-1,0.9h-4.4c-0.7,0-1-0.2-1-0.9V63.7c0-0.6,0.1-0.8,1-0.8h4.5c0.7,0,1,0.1,1,0.8
			V82.8z"/>
		<path fill="#FFFFFF" d="M272.1,57.9c0,0.8-0.4,0.9-1,0.9h-4.4c-0.7,0-1-0.2-1-0.9V54c0-0.6,0.1-0.8,1-0.8h4.5c0.7,0,1,0.1,1,0.8
			V57.9z"/>
	</g>
	<path fill="#FFFFFF" d="M296.7,82.8c0,0.7-0.3,0.8-1,0.8H292c-0.9,0-1-0.3-1-0.9V69.2c0-1.6,0-4.1-4-4.1c-3.8,0-3.8,2.4-3.8,3.4
		v14.3c0,0.8-0.2,1-1.1,1h-3.7c-0.7,0-1-0.2-1-0.8V66.9c0-1.6,0.1-2.5,2.2-3.4c2.5-1,5.2-1.2,7.9-1.2c4.7,0,6.3,1,7.1,1.6
		c2.1,1.5,2.2,3.4,2.2,4.8V82.8z"/>
	<path fill="#FFFFFF" d="M308.7,65.1v17.6c0,0.8-0.4,0.9-1,0.9H304c-0.8,0-1-0.2-1-0.9V65.1h-2.5c-0.7,0-0.9,0-0.9-0.7
		c0-1.4,0-1.6,0.9-1.6h2.5c0.1-1.7,0.3-4.4,1.6-6.6c1.1-1.7,3.3-3.7,6.4-3.7c1.7,0,2.8,0.8,2.8,2.1c0,1.3-1.2,1.8-2.1,1.8
		c-0.3,0-1.5-0.2-1.7-0.2c-1.4,0-2.4,0.9-2.4,2.9c0,0.6,0.2,2.6,1,3.7h3.6c0.5,0,0.9,0,0.9,0.6c0,0.4,0,1.2,0,1.3
		c-0.1,0.3-0.3,0.4-0.9,0.4H308.7z"/>
	<path fill="#FFFFFF" d="M325.6,84.2c-6.9,0-11.2-4.7-11.2-10.9c0-6.3,4.4-10.9,11.3-10.9c7.6,0,11,5.8,11.1,10.7
		C337,78.9,333,84.2,325.6,84.2z M325.5,65.3c-3.2,0-4.9,3.3-4.9,7.4c0,4.5,2.3,8.2,5.4,8.2c3,0,5.1-3.5,4.9-8.1
		C330.5,68,328.2,65.3,325.5,65.3z"/>
</g>
</svg>
